<?xml version="1.0" encoding="UTF-8"?>
<svg viewBox="0 0 312 100" height="100" width="312" version="1.1" id="Layer_1" xmlns="http://www.w3.org/2000/svg" xmlns:xlink="http://www.w3.org/1999/xlink" x="0px" y="0px" xml:space="preserve">
  <defs id="SvgjsDefs1477"></defs>
  <g id="SvgjsG1478" transform="matrix(1.5319148936170213,0,0,1.5319148936170213,19.23404255319149,19.234042461882247)" fill="#0e2f56">
    <g>
      <polygon fill="#fff" points="43,47.5 5,47.5 5,20.6 7,20.6 7,45.5 41,45.5 41,20.8 43,20.8  "></polygon>
      <path fill="#fff" d="M42.8,21.8c-1.5,0-2.9-0.5-3.8-1.4c-0.9,0.9-2.2,1.4-3.7,1.4c-1.5,0-2.9-0.5-3.8-1.4   c-0.9,0.9-2.2,1.4-3.7,1.4c-1.5,0-2.9-0.5-3.8-1.4c-0.9,0.9-2.2,1.4-3.7,1.4c-1.5,0-2.9-0.5-3.8-1.4c-0.9,0.9-2.2,1.4-3.7,1.4   c-1.5,0-2.9-0.5-3.8-1.4c-0.9,0.9-2.2,1.4-3.7,1.4c-2.7,0-4.8-1.6-4.8-3.7v-6.3c0-0.6,0.4-1,1-1h45c0.6,0,1,0.4,1,1v6.3   C47.5,20.2,45.4,21.8,42.8,21.8z M40,18.1c0,0.8,1.1,1.7,2.8,1.7h0c1.6,0,2.7-0.9,2.7-1.7v-5.3h-43v5.3c0,0.8,1.1,1.7,2.7,1.7   c1.6,0,2.8-0.9,2.8-1.7c0-0.6,0.4-1,1-1c0.6,0,1,0.4,1,1c0,0.8,1.1,1.7,2.8,1.7c1.6,0,2.7-0.9,2.7-1.7c0-0.6,0.4-1,1-1   c0.6,0,1,0.4,1,1c0,0.8,1.1,1.7,2.8,1.7c1.6,0,2.8-0.9,2.8-1.7c0-0.6,0.4-1,1-1c0.6,0,1,0.4,1,1c0,0.8,1.1,1.7,2.8,1.7   s2.8-0.9,2.8-1.7c0-0.6,0.4-1,1-1c0.6,0,1,0.4,1,1c0,0.8,1.1,1.7,2.8,1.7c1.6,0,2.8-0.9,2.8-1.7c0-0.6,0.4-1,1-1   C39.6,17.1,40,17.5,40,18.1z"></path>
      <path fill="#fff" d="M46.5,12.8h-45c-0.3,0-0.6-0.2-0.8-0.4c-0.2-0.3-0.2-0.6-0.1-0.9L4.3,1.2c0.1-0.4,0.5-0.7,0.9-0.7h37.5   c0.4,0,0.8,0.3,0.9,0.7l3.7,10.3c0.1,0.3,0.1,0.6-0.1,0.9C47.1,12.7,46.8,12.8,46.5,12.8z M2.9,10.8h42.1l-3-8.3H5.9L2.9,10.8z"></path>
      <rect x="23" y="20.1" fill="#fff" width="2" height="26.4"></rect>
      <g>
        <rect x="17" y="31" fill="#fff" width="2" height="2.3"></rect>
        <rect x="29" y="31" fill="#fff" width="2" height="2.3"></rect>
      </g>
    </g>
  </g>
  <g id="SvgjsG1479" transform="matrix(1.0279028991250294,0,0,1.0279028991250294,110.5313336991494,0.25281837702670806)" fill="#fff">
    <path d="M28.286 11.428999999999998 l0 3.4286 l-9.7143 15.714 l0 9.4286 l-7.4286 0 l0 -9.4857 l-9.7143 -15.657 l0 -3.4286 l6.5714 0 l6.8571 11.657 l6.8571 -11.657 l6.5714 0 z M53.42828571428571 11.428999999999998 l4.2857 4.2857 l0 20 l-4.2857 4.2857 l-16.571 0 l-4.2857 -4.2857 l0 -20 l4.2857 -4.2857 l16.571 0 z M50.28528571428571 33.7143 l0 -16 l-10.286 0 l0 16 l10.286 0 z M63.42852857142857 35.7143 l0 -24.286 l7.4286 0 l0 22.286 l10.286 0 l0 -22.286 l7.4286 0 l0 24.286 l-4.2857 4.2857 l-16.571 0 z M119.99957142857143 15.713999999999999 l0 10 l-4.2857 4.2857 l4.2857 6.5714 l0 3.4286 l-6.8571 0 l-5.9429 -9.7143 l-5.4857 0 l0 9.7143 l-7.4286 0 l0 -28.571 l21.429 0 z M112.57157142857143 24 l0 -6.2857 l-10.857 0 l0 6.2857 l10.857 0 z M139.99995714285714 40 l0 -24.286 l4.2857 -4.2857 l16.571 0 l4.2857 4.2857 l0 24.286 l-7.4286 0 l0 -8 l-10.286 0 l0 8 l-7.4286 0 z M147.42885714285714 25.714 l10.286 0 l0 -8 l-10.286 0 l0 8 z M191.714 11.428999999999998 l4.2857 4.2857 l0 20 l-4.2857 4.2857 l-20.857 0 l0 -28.571 l20.857 0 z M188.571 33.7143 l0 -16 l-10.286 0 l0 16 l10.286 0 z"></path>
  </g>
  <g id="SvgjsG1480" transform="matrix(1.714841413933008,0,0,1.714841413933008,107.10018478059929,31.40295345428579)" fill="#fff">
    <path d="M20.629 11.428999999999998 l7.4286 0 l0 28.571 l-7.4286 0 l0 -11.143 l-10.286 0 l0 11.143 l-7.4857 0 l0.057143 -28.571 l7.4286 0 l0 11.143 l10.286 0 l0 -11.143 z M58.05728571428571 17.714 l-16.857 0 l0 4.8571 l14.571 0 l0 6.2857 l-14.571 0 l0 4.8571 l16.857 0 l0 6.2857 l-20 0 l-4.2857 -4.2857 l0 -24.286 l24.286 0 l0 6.2857 z M89.48528571428571 15.713999999999999 l0 10 l-4.2857 4.2857 l4.2857 6.5714 l0 3.4286 l-6.8571 0 l-5.9429 -9.7143 l-5.4857 0 l0 9.7143 l-7.4286 0 l0 -28.571 l21.429 0 z M82.05728571428571 24 l0 -6.2857 l-10.857 0 l0 6.2857 l10.857 0 z M119.48585714285714 17.714 l-16.857 0 l0 4.8571 l14.571 0 l0 6.2857 l-14.571 0 l0 4.8571 l16.857 0 l0 6.2857 l-20 0 l-4.2857 -4.2857 l0 -24.286 l24.286 0 l0 6.2857 z"></path>
  </g>
</svg>
